<svg width="20" height="19" viewBox="0 0 20 19" fill="none" xmlns="http://www.w3.org/2000/svg">
<g clip-path="url(#clip0_2_13265)">
<path d="M10.0488 18.5254C10.1529 18.5254 10.2717 18.4977 10.4052 18.4424C10.5387 18.3871 10.6575 18.3268 10.7617 18.2617C12.5976 17.0898 14.1878 15.861 15.5322 14.5752C16.8766 13.2894 17.915 11.9678 18.6474 10.6104C19.3798 9.25295 19.746 7.88086 19.746 6.49414C19.746 5.62825 19.6077 4.83561 19.331 4.11621C19.0543 3.39681 18.6702 2.77344 18.1786 2.24609C17.6871 1.71875 17.1109 1.31185 16.4501 1.02539C15.7893 0.738932 15.0748 0.595703 14.3066 0.595703C13.3561 0.595703 12.5195 0.838216 11.7968 1.32324C11.0741 1.80827 10.4915 2.45443 10.0488 3.26172C9.61257 2.46094 9.03314 1.81641 8.31048 1.32812C7.58783 0.839842 6.74798 0.595703 5.79095 0.595703C5.02272 0.595703 4.30983 0.738932 3.65228 1.02539C2.99473 1.31185 2.41856 1.71875 1.92377 2.24609C1.42898 2.77344 1.04323 3.39681 0.76654 4.11621C0.489848 4.83561 0.351501 5.62825 0.351501 6.49414C0.351501 7.88086 0.717711 9.25295 1.45013 10.6104C2.18256 11.9678 3.2226 13.2894 4.57025 14.5752C5.9179 15.861 7.5097 17.0898 9.34564 18.2617C9.44981 18.3268 9.56862 18.3871 9.70209 18.4424C9.83555 18.4977 9.95111 18.5254 10.0488 18.5254Z" fill="#FF3B30"/>
</g>
<defs>
<clipPath id="clip0_2_13265">
<rect width="19.3945" height="18.5254" fill="white" transform="translate(0.351501)"/>
</clipPath>
</defs>
</svg>
