<svg width="21" height="19" viewBox="0 0 21 19" fill="none" xmlns="http://www.w3.org/2000/svg">
<g clip-path="url(#clip0_2_13261)">
<path d="M0.957001 6.49414C0.957001 7.88086 1.32321 9.25295 2.05563 10.6104C2.78806 11.9678 3.8281 13.2894 5.17575 14.5752C6.5234 15.861 8.1152 17.0898 9.95114 18.2617C10.0553 18.3268 10.1741 18.3871 10.3076 18.4424C10.4411 18.4977 10.5566 18.5254 10.6543 18.5254C10.7584 18.5254 10.8772 18.4977 11.0107 18.4424C11.1442 18.3871 11.263 18.3268 11.3672 18.2617C13.2031 17.0898 14.7933 15.861 16.1377 14.5752C17.4821 13.2894 18.5205 11.9678 19.2529 10.6104C19.9853 9.25295 20.3515 7.88086 20.3515 6.49414C20.3515 5.62825 20.2132 4.83561 19.9365 4.11621C19.6598 3.39681 19.2725 2.77344 18.7744 2.24609C18.2763 1.71875 17.6904 1.31185 17.0166 1.02539C16.3427 0.738932 15.6087 0.595703 14.8144 0.595703C13.9095 0.595703 13.1006 0.794272 12.3877 1.19141C11.6748 1.58854 11.097 2.11589 10.6543 2.77344C10.2181 2.11589 9.6419 1.58854 8.92575 1.19141C8.2096 0.794272 7.39906 0.595703 6.49411 0.595703C5.70635 0.595703 4.97556 0.738932 4.30173 1.02539C3.6279 1.31185 3.04033 1.71875 2.53903 2.24609C2.03773 2.77344 1.64873 3.39681 1.37204 4.11621C1.09535 4.83561 0.957001 5.62825 0.957001 6.49414ZM2.52927 6.49414C2.52927 5.62825 2.70017 4.87142 3.04196 4.22363C3.38376 3.57584 3.85251 3.07129 4.44821 2.70996C5.04392 2.34863 5.71937 2.16797 6.47458 2.16797C7.08656 2.16797 7.61716 2.27702 8.06638 2.49512C8.51559 2.71322 8.89645 2.98503 9.20895 3.31055C9.52145 3.63607 9.78187 3.96159 9.9902 4.28711C10.1269 4.48242 10.2425 4.61426 10.3369 4.68262C10.4313 4.75098 10.5371 4.78516 10.6543 4.78516C10.7715 4.78516 10.8756 4.74935 10.9668 4.67773C11.0579 4.60612 11.1751 4.47591 11.3183 4.28711C11.5397 3.9681 11.8083 3.6442 12.124 3.31543C12.4397 2.98666 12.8173 2.71322 13.2568 2.49512C13.6963 2.27702 14.222 2.16797 14.834 2.16797C15.5892 2.16797 16.2646 2.34863 16.8603 2.70996C17.456 3.07129 17.9248 3.57584 18.2666 4.22363C18.6084 4.87142 18.7793 5.62825 18.7793 6.49414C18.7793 7.39909 18.5612 8.31543 18.125 9.24316C17.6888 10.1709 17.098 11.0808 16.3525 11.9727C15.607 12.8646 14.7607 13.7158 13.8134 14.5264C12.8661 15.3369 11.8814 16.0807 10.8593 16.7578C10.7487 16.8359 10.6803 16.875 10.6543 16.875C10.6282 16.875 10.5631 16.8359 10.459 16.7578C9.43682 16.0807 8.45212 15.3369 7.50485 14.5264C6.55758 13.7158 5.7096 12.8646 4.96091 11.9727C4.21221 11.0808 3.61976 10.1709 3.18356 9.24316C2.74737 8.31543 2.52927 7.39909 2.52927 6.49414Z" fill="#FF3B30"/>
</g>
<defs>
<clipPath id="clip0_2_13261">
<rect width="19.3945" height="18.5254" fill="white" transform="translate(0.957001)"/>
</clipPath>
</defs>
</svg>
