<svg width="21" height="24" viewBox="0 0 21 24" fill="none" xmlns="http://www.w3.org/2000/svg">
<g clip-path="url(#clip0_2_15050)">
<path d="M5.19959 16.636L8.44177 15.2982C8.56547 15.2526 8.6615 15.2038 8.72986 15.1517C8.79822 15.0996 8.87146 15.0377 8.94959 14.9661L18.2953 5.68878C18.7511 5.23305 18.9773 4.75128 18.974 4.24347C18.9708 3.73566 18.738 3.24738 18.2757 2.77863L16.2249 0.708315C15.7562 0.246075 15.2663 0.0100729 14.7552 0.000307309C14.2442 -0.0094583 13.7608 0.213524 13.305 0.669253L3.94959 9.9466C3.87797 10.0182 3.81775 10.0882 3.76892 10.1566C3.72009 10.2249 3.66964 10.3177 3.61755 10.4349L2.25037 13.6771C2.1462 13.918 2.10877 14.1556 2.13806 14.39C2.16736 14.6243 2.27641 14.8359 2.46521 15.0247L3.85193 16.4212C4.03422 16.6035 4.24256 16.7109 4.47693 16.7435C4.7113 16.776 4.95219 16.7402 5.19959 16.636ZM5.0531 15.1224C4.95545 15.1549 4.86756 15.1679 4.78943 15.1614C4.7113 15.1549 4.62667 15.1061 4.53552 15.015L3.87146 14.3509C3.78031 14.2662 3.73149 14.1832 3.72498 14.1019C3.71847 14.0205 3.73474 13.9342 3.77381 13.8431L4.98474 11.0013L14.2914 1.763C14.4346 1.63279 14.5844 1.56443 14.7406 1.55792C14.8968 1.55141 15.0401 1.61326 15.1703 1.74347L17.2308 3.82355C17.5108 4.11001 17.501 4.40298 17.2015 4.70246L7.8949 13.9407L5.0531 15.1224ZM1.39099 17.1243H2.57263C2.70935 17.1243 2.8184 17.108 2.89978 17.0755C2.98116 17.043 3.07393 16.9844 3.1781 16.8997L4.09607 16.1966L2.68982 14.761L1.10779 16.431C0.964559 16.5872 0.922241 16.7418 0.980835 16.8948C1.03943 17.0478 1.17615 17.1243 1.39099 17.1243ZM4.09607 11.0013L8.09021 15.015L9.00818 14.1068L5.01404 10.0833L4.09607 11.0013ZM12.2015 2.96417L16.1956 6.97785L17.1136 6.07941L13.1195 2.05597L12.2015 2.96417ZM1.19568 20.6107H19.8578C20.0726 20.6107 20.2582 20.5326 20.4144 20.3763C20.5707 20.22 20.6488 20.0345 20.6488 19.8196C20.6488 19.6048 20.5707 19.4209 20.4144 19.2679C20.2582 19.1149 20.0726 19.0384 19.8578 19.0384H1.19568C0.980835 19.0384 0.796915 19.1149 0.643921 19.2679C0.490926 19.4209 0.414429 19.6048 0.414429 19.8196C0.414429 20.0345 0.490926 20.22 0.643921 20.3763C0.796915 20.5326 0.980835 20.6107 1.19568 20.6107Z" fill="black" fill-opacity="0.85"/>
</g>
<defs>
<clipPath id="clip0_2_15050">
<rect width="20.2344" height="23.36" fill="white" transform="translate(0.414429)"/>
</clipPath>
</defs>
</svg>
