<svg width="25" height="23" viewBox="0 0 25 23" fill="none" xmlns="http://www.w3.org/2000/svg">
<g clip-path="url(#clip0_2_16870)">
<path d="M9.8147 19.502H15.4495V12.3926C15.4495 12.1712 15.3811 11.9922 15.2444 11.8555C15.1077 11.7188 14.9286 11.6504 14.7073 11.6504H10.5666C10.3388 11.6504 10.1565 11.7188 10.0198 11.8555C9.88306 11.9922 9.8147 12.1712 9.8147 12.3926V19.502ZM5.99634 20.5078H19.2092C19.9058 20.5078 20.4462 20.319 20.8303 19.9414C21.2144 19.5638 21.4065 19.0332 21.4065 18.3496V7.55859L19.8342 6.48438V17.9492C19.8342 18.2682 19.7528 18.5123 19.5901 18.6816C19.4273 18.8509 19.1897 18.9355 18.8772 18.9355H6.32837C6.01587 18.9355 5.77661 18.8509 5.6106 18.6816C5.44458 18.5123 5.36158 18.2682 5.36158 17.9492V6.49414L3.78931 7.55859V18.3496C3.78931 19.0332 3.98299 19.5638 4.37036 19.9414C4.75773 20.319 5.29972 20.5078 5.99634 20.5078ZM0.976807 9.63867C0.976807 9.8405 1.05168 10.0212 1.20142 10.1807C1.35116 10.3402 1.55623 10.4199 1.81665 10.4199C1.95337 10.4199 2.07869 10.3874 2.19263 10.3223C2.30656 10.2572 2.41561 10.1855 2.51978 10.1074L12.2952 1.9043C12.4059 1.80664 12.5214 1.75781 12.6418 1.75781C12.7623 1.75781 12.8778 1.80664 12.9885 1.9043L22.7639 10.1074C22.8616 10.1855 22.9674 10.2572 23.0813 10.3223C23.1952 10.3874 23.3206 10.4199 23.4573 10.4199C23.6852 10.4199 23.8805 10.3532 24.0432 10.2197C24.2059 10.0862 24.2873 9.90232 24.2873 9.66797C24.2873 9.39453 24.1864 9.17318 23.9846 9.00391L13.8186 0.458984C13.454 0.152995 13.0617 0 12.6418 0C12.2219 0 11.8297 0.152995 11.4651 0.458984L1.28931 9.00391C1.08097 9.17318 0.976807 9.38476 0.976807 9.63867ZM18.9553 5.23438L21.4065 7.30469V2.79297C21.4065 2.57812 21.343 2.40722 21.2161 2.28027C21.0891 2.15332 20.9182 2.08984 20.7034 2.08984H19.6584C19.4501 2.08984 19.2808 2.15332 19.1506 2.28027C19.0204 2.40722 18.9553 2.57812 18.9553 2.79297V5.23438Z" fill="black" fill-opacity="0.85"/>
</g>
<defs>
<clipPath id="clip0_2_16870">
<rect width="23.3105" height="22.1582" fill="white" transform="translate(0.976807)"/>
</clipPath>
</defs>
</svg>
