<?xml version="1.0" encoding="utf-8"?>
<!-- Generator: Adobe Illustrator 24.1.2, SVG Export Plug-In . SVG Version: 6.00 Build 0)  -->
<svg version="1.1" id="Layer_1" xmlns="http://www.w3.org/2000/svg" xmlns:xlink="http://www.w3.org/1999/xlink" x="0px" y="0px"
	 viewBox="0 0 24 24" style="enable-background:new 0 0 24 24;" xml:space="preserve">
<style type="text/css">
	.st0{fill:none;}
	.st1{fill:#512BD4;}
</style>
<path class="st0" d="M0,0h24v24H0V0z"/>
<path class="st1" d="M20,1v3h3v2h-3v3h-2V6h-3V4h3V1H20z M12,13c1.1,0,2-0.9,2-2s-0.9-2-2-2s-2,0.9-2,2S10.9,13,12,13z M14,3.3V7h3
	v3h2.9c0,0.4,0.1,0.8,0.1,1.2c0,3.3-2.7,7.3-8,11.8c-5.3-4.5-8-8.5-8-11.8C4,6.2,7.8,3,12,3C12.7,3,13.4,3.1,14,3.3z"/>
</svg>
