<svg width="19" height="19" viewBox="0 0 19 19" fill="none" xmlns="http://www.w3.org/2000/svg">
<g clip-path="url(#clip0_2_15820)">
<path d="M3.90442 18.4941H15.7501C16.7722 18.4941 17.5388 18.2418 18.0499 17.7373C18.561 17.2328 18.8165 16.4759 18.8165 15.4668V3.54297C18.8165 2.53385 18.561 1.77702 18.0499 1.27246C17.5388 0.767904 16.7722 0.515625 15.7501 0.515625H3.90442C2.88228 0.515625 2.11568 0.767904 1.60461 1.27246C1.09355 1.77702 0.838013 2.53385 0.838013 3.54297V15.4668C0.838013 16.4759 1.09355 17.2328 1.60461 17.7373C2.11568 18.2418 2.88228 18.4941 3.90442 18.4941ZM3.92395 16.9219C3.43567 16.9219 3.06132 16.7933 2.8009 16.5361C2.54049 16.279 2.41028 15.8965 2.41028 15.3887V3.62109C2.41028 3.11328 2.54049 2.73079 2.8009 2.47363C3.06132 2.21647 3.43567 2.08789 3.92395 2.08789H15.7306C16.2123 2.08789 16.585 2.21647 16.8487 2.47363C17.1124 2.73079 17.2442 3.11328 17.2442 3.62109V15.3887C17.2442 15.8965 17.1124 16.279 16.8487 16.5361C16.585 16.7933 16.2123 16.9219 15.7306 16.9219H3.92395ZM3.1134 17.4981H16.5509C16.4076 16.8145 16.1374 16.183 15.7403 15.6035C15.3432 15.0241 14.8468 14.5228 14.2511 14.0996C13.6554 13.6765 12.9832 13.3477 12.2345 13.1133C11.4858 12.8789 10.685 12.7617 9.83215 12.7617C8.9858 12.7617 8.18827 12.8789 7.43957 13.1133C6.69088 13.3477 6.01705 13.6765 5.41809 14.0996C4.81913 14.5228 4.32109 15.0241 3.92395 15.6035C3.52681 16.183 3.25663 16.8145 3.1134 17.4981ZM9.83215 11.1309C10.4506 11.1374 11.0122 10.9811 11.5167 10.6621C12.0212 10.3431 12.4233 9.90527 12.7228 9.34863C13.0223 8.79199 13.172 8.16537 13.172 7.46875C13.172 6.81771 13.0223 6.22037 12.7228 5.67675C12.4233 5.13313 12.0212 4.69856 11.5167 4.37304C11.0122 4.04752 10.4506 3.88476 9.83215 3.88476C9.20715 3.88476 8.64237 4.04752 8.13781 4.37304C7.63326 4.69856 7.23287 5.13313 6.93664 5.67675C6.64042 6.22037 6.49231 6.81771 6.49231 7.46875C6.49882 8.16537 6.65019 8.78874 6.94641 9.33886C7.24263 9.889 7.6414 10.3236 8.1427 10.6426C8.644 10.9616 9.20715 11.1244 9.83215 11.1309Z" fill="black" fill-opacity="0.85"/>
</g>
<defs>
<clipPath id="clip0_2_15820">
<rect width="17.9785" height="17.998" fill="white" transform="translate(0.838013 0.496094)"/>
</clipPath>
</defs>
</svg>
